<svg xmlns="http://www.w3.org/2000/svg" xmlns:xlink="http://www.w3.org/1999/xlink" version="1.1" x="0px" y="0px" viewBox="0 0 100 100" enable-background="new 0 0 100 100" xml:space="preserve"><path d="M82.448,46.697v48.255H19.842V46.697h4.628v-7.204c0-0.748,0.032-1.488,0.094-2.221c2.374,0.996,4.757,1.997,7.152,2.959  v6.466h39.037V33.422c0-10.763-8.756-19.519-19.519-19.519c-2.419,0-4.736,0.446-6.875,1.255c-0.818-0.825-1.625-1.654-2.406-2.506  c0.738-1.685,1.568-3.37,2.27-5.054c0.094-0.026,0.187-0.053,0.281-0.078c2.151-0.561,4.406-0.863,6.73-0.863  c14.759,0,26.765,12.006,26.765,26.764v13.275H82.448z M25.596,34.681l-0.146-0.723c-1.109-5.518,0.238-10.969,3.283-15.219  c-2.891,0.314-5.779,0.558-8.682,0.704c-1.839,4.212-2.613,8.93-2.052,13.748C20.521,33.698,23.055,34.21,25.596,34.681z   M29.488,12.498c-0.609-2.569-1.199-5.143-1.829-7.709c-2.807,1.867-5.244,4.247-7.175,7.007c2.875,0.431,5.755,0.761,8.65,1.022  C29.252,12.71,29.369,12.604,29.488,12.498z M40.173,15.69c-1.792-1.81-3.549-3.64-5.046-5.688c-0.986,0.493-1.94,1.042-2.854,1.65  c0.629,2.565,1.22,5.139,1.829,7.708C35.869,17.792,37.923,16.54,40.173,15.69z M40.599,5.594c-1.709,0.466-3.352,1.094-4.908,1.872  c0.814,1.116,1.708,2.165,2.64,3.182C39.068,8.964,39.897,7.279,40.599,5.594z M55.742,64.768c0-2.49-2.018-4.509-4.508-4.509  c-2.489,0-4.508,2.019-4.508,4.509c0,1.365,0.608,2.588,1.567,3.414v8.047c0,1.625,1.315,2.941,2.94,2.941  c1.624,0,2.941-1.316,2.941-2.941v-8.047C55.135,67.355,55.742,66.133,55.742,64.768z"></path></svg>