<svg xmlns="http://www.w3.org/2000/svg" xmlns:xlink="http://www.w3.org/1999/xlink" version="1.1" x="0px" y="0px" viewBox="0 0 100 100" enable-background="new 0 0 100 100" xml:space="preserve"><g><path fill="#000000" d="M40.94,30.796c-2.53-2.54-6.65-2.54-9.19,0c-1.23,1.23-1.9,2.86-1.9,4.59   c0,1.74,0.67,3.37,1.9,4.6c0.25,0.25,0.52,0.48,0.8,0.68c0.53-0.85,1.12-1.66,1.76-2.43c-0.15-0.11-0.3-0.23-0.44-0.37   c-0.66-0.66-1.02-1.54-1.02-2.48c0-0.93,0.36-1.81,1.02-2.47c0.68-0.68,1.58-1.02,2.48-1.02c0.89,0,1.79,0.34,2.47,1.02   c0.24,0.24,0.44,0.5,0.6,0.79c0.83-0.55,1.71-1.03,2.61-1.45C41.75,31.726,41.38,31.236,40.94,30.796z"></path><path fill="#000000" d="M44.48,27.256c-2.17-2.17-5.06-3.37-8.13-3.37s-5.96,1.2-8.13,3.37   c-2.18,2.17-3.37,5.06-3.37,8.13c0,3.08,1.19,5.96,3.37,8.14c0.65,0.65,1.37,1.22,2.15,1.69c0.33-0.97,0.73-1.91,1.2-2.81   c-0.43-0.29-0.85-0.63-1.23-1.01c-3.32-3.31-3.32-8.7,0-12.02c1.65-1.65,3.83-2.48,6.01-2.48c2.17,0,4.35,0.83,6.01,2.48   c0.63,0.63,1.14,1.34,1.53,2.1c0.95-0.35,1.92-0.63,2.93-0.84C46.26,29.396,45.47,28.256,44.48,27.256z M44.52,37.706   c-0.38,1.36-1.1,2.63-2.16,3.69c-1.32,1.32-2.97,2.11-4.68,2.37c-0.62,0.98-1.14,2.02-1.54,3.12h0.21c3.07,0,5.96-1.19,8.13-3.36   c1.89-1.9,3.04-4.33,3.31-6.96C46.65,36.826,45.56,37.216,44.52,37.706z"></path><path fill="#000000" d="M29.8,47.186c-0.26,1-0.43,2.03-0.53,3.08c-2.89-1.36-5.37-3.57-7.07-6.39c-0.43-0.71-0.2-1.63,0.51-2.06   c0.71-0.43,1.63-0.2,2.06,0.51C26.01,44.396,27.76,46.046,29.8,47.186z"></path><path fill="#000000" d="M21.38,37.176c-0.83,0.01-1.51-0.64-1.52-1.47c-0.09-4.55,1.68-8.71,4.61-11.76   c2.93-3.04,7.02-4.97,11.57-5.05c7.37-0.15,13.73,4.6,15.95,11.25c-0.16-0.01-0.32-0.01-0.48-0.01c-0.9,0-1.79,0.05-2.66,0.17   c-2.04-5.03-7.02-8.53-12.76-8.42c-7.44,0.15-13.38,6.32-13.24,13.76C22.87,36.476,22.21,37.156,21.38,37.176z"></path><path fill="#000000" d="M52.83,36.186c-0.41,8.59-7.44,15.54-16.16,15.7c-0.5,0.01-1,0-1.5-0.05c0.03-1.02,0.17-2.02,0.39-2.98   c0.35,0.03,0.7,0.04,1.05,0.03c7.07-0.13,12.79-5.72,13.21-12.67c0.56-0.05,1.12-0.08,1.69-0.08   C51.95,36.136,52.4,36.156,52.83,36.186z"></path><path fill="#000000" d="M29.15,52.496c0,1.09,0.08,2.16,0.24,3.21c-4.18-1.43-7.96-4.15-10.67-8.04c-3.33-4.77-4.5-10.59-3.51-16.1   c0.54-3.04,1.74-5.98,3.59-8.6c0.48-0.67,1.41-0.83,2.09-0.36c0.68,0.48,0.84,1.42,0.36,2.1c-4.48,6.33-4.51,14.88-0.07,21.25   c2.02,2.9,4.78,5.13,7.97,6.47V52.496z"></path><path fill="#000000" d="M51.54,24.806c-0.47-0.68-0.3-1.61,0.38-2.08c0.68-0.48,1.61-0.31,2.08,0.37c1.69,2.44,2.81,5.1,3.39,7.83   c-1.05-0.29-2.13-0.5-3.24-0.63C53.6,28.386,52.74,26.526,51.54,24.806z"></path><path fill="#000000" d="M57.75,37.376c-0.56,6.09-3.7,11.89-9.1,15.65c-3.93,2.74-8.46,3.98-12.9,3.83   c-0.28-0.97-0.46-1.97-0.54-3.01c4.16,0.27,8.25-0.87,11.72-3.28c4.83-3.36,7.56-8.63,7.89-14.1   C55.84,36.686,56.82,36.986,57.75,37.376z"></path><path fill="#000000" d="M23.454,18.707c0.068-0.378,0.279-0.73,0.619-0.967   c8.216-5.722,19.512-4.953,26.859,1.829c0.609,0.562,0.645,1.511,0.085,2.119c-0.562,0.609-1.512,0.647-2.12,0.085   c-6.32-5.834-16.039-6.495-23.109-1.571c-0.68,0.474-1.614,0.306-2.088-0.374C23.463,19.489,23.387,19.085,23.454,18.707z"></path><path fill="#000000" d="M29.83,57.966c0.29,1.16,0.68,2.29,1.15,3.37c-5.02-1.03-9.64-3.5-13.35-7.21   c-6.62-6.62-9.23-16.01-6.99-25.09c0.2-0.81,1.01-1.3,1.82-1.1c0.8,0.2,1.29,1.01,1.09,1.82c-1.98,8.06,0.33,16.37,6.2,22.24   C22.6,54.846,26.06,56.876,29.83,57.966z"></path><path fill="#000000" d="M59.67,38.326c0.98,0.56,1.9,1.23,2.73,1.98c-0.95,5.06-3.38,9.91-7.29,13.82   c-4.6,4.59-10.59,7.3-17.03,7.7c-0.64-0.91-1.19-1.9-1.63-2.94c6.25-0.02,12.12-2.47,16.54-6.89   C56.82,48.166,59.05,43.326,59.67,38.326z"></path><path fill="#000000" d="M28.93,11.456c-0.19-0.8,0.3-1.61,1.1-1.81c9.09-2.23,18.46,0.38,25.08,7c4.61,4.6,7.16,10.5,7.65,16.54   c-1.01-0.6-2.09-1.12-3.2-1.54c-0.75-4.72-2.94-9.25-6.57-12.88c-5.87-5.87-14.18-8.19-22.24-6.21   C29.94,12.756,29.13,12.266,28.93,11.456z"></path><path fill="#000000" d="M27.97,12.42c0,0.581-0.339,1.134-0.906,1.378c-2.729,1.176-5.188,2.848-7.31,4.969   c-2.146,2.146-3.831,4.637-5.009,7.402c-0.324,0.762-1.205,1.117-1.968,0.793c-0.763-0.325-1.117-1.208-0.792-1.968   c1.328-3.12,3.228-5.929,5.647-8.348c2.391-2.391,5.164-4.276,8.243-5.603c0.761-0.328,1.644,0.023,1.972,0.784   C27.931,12.02,27.97,12.221,27.97,12.42z"></path><path fill="#000000" d="M89.121,85.16L77.103,73.142c-0.986-0.986-2.41-1.249-3.641-0.814l-6.198-6.198   c3.172-3.661,5.107-8.421,5.107-13.634c0-11.503-9.358-20.862-20.862-20.862c-11.503,0-20.862,9.359-20.862,20.862   c0,11.504,9.359,20.863,20.862,20.863c5.213,0,9.974-1.935,13.634-5.108l6.198,6.198c-0.436,1.232-0.173,2.657,0.813,3.642   l12.019,12.018c0.684,0.684,1.579,1.025,2.475,1.025s1.792-0.342,2.475-1.025C90.489,88.742,90.489,86.526,89.121,85.16z    M33.646,52.496c0-9.849,8.013-17.862,17.862-17.862c9.85,0,17.862,8.013,17.862,17.862c0,9.85-8.013,17.863-17.862,17.863   C41.659,70.359,33.646,62.346,33.646,52.496z"></path></g></svg>