<svg xmlns="http://www.w3.org/2000/svg" xmlns:xlink="http://www.w3.org/1999/xlink" version="1.1" x="0px" y="0px" viewBox="0 0 100 100" enable-background="new 0 0 100 100" xml:space="preserve"><path d="M23.77,56.377l-2.403,2.396l0.637,0.637L6.663,74.732l-3.361-3.365l15.322-15.324l0.631,0.631l2.396-2.408  c-5.429-6.482-5.429-15.932,0-22.404c6.204-7.35,17.167-8.299,24.516-2.111c7.35,6.18,8.293,17.161,2.111,24.515  C42.099,61.615,31.119,62.559,23.77,56.377z M50.429,43.067c0-8.535-6.927-15.455-15.449-15.455c-8.545,0-15.455,6.92-15.455,15.455  c0,8.529,6.91,15.439,15.455,15.439C43.502,58.506,50.429,51.596,50.429,43.067L50.429,43.067z"></path><g><path d="M48.263,46.396l-2.134-2.495l-1.919,3.866c-0.613,1.256-1.998,1.93-3.379,1.628l-12.516-2.692   c-0.213-0.05-0.422-0.115-0.613-0.202c-1.537-0.691-2.228-2.496-1.537-4.032l2.766-6.143l10.348,2.945l1.514-3.647   c-2.917-0.86-5.105-3.279-5.682-6.268c0.594,0,1.174,0.049,1.768,0.125c0.745,2.863,3.355,4.832,6.295,4.788l-2.918,7.037   L29.868,38.35l-2.149,4.81c-0.325,0.69-0.017,1.497,0.674,1.805c0.093,0.038,0.192,0.065,0.269,0.088l12.537,2.704   c0.615,0.126,1.229-0.172,1.514-0.741l3.016-6.148l2.896,3.357C48.569,44.953,48.449,45.683,48.263,46.396z"></path></g><g><path d="M37.819,24.134c-0.613-0.082-1.229-0.153-1.863-0.181c1.436-2.659,4.244-4.289,7.256-4.24c4.49,0.066,8.062,3.753,8,8.244   L64.671,23.3c0.922-0.317,1.92-0.169,2.727,0.373l10.35,7.163c0.361,0.241,0.646,0.559,0.877,0.933   c0.867,1.437,0.406,3.317-1.031,4.185l-3.191,1.919c-1.152,0.691-2.627,0.544-3.609-0.356l-5.814-5.26l-5.681,2.475l10.267,10.375   l10.212,5.167l9.827-8.342c1.06-0.894,2.578-0.96,3.709-0.17l3.032,2.101c0.192,0.131,0.368,0.285,0.521,0.45   c1.13,1.244,1.055,3.175-0.196,4.31l-13.607,12.4c-0.904,0.822-2.21,1.037-3.317,0.516l-14.15-6.504l-1.359,7.541l14.834,6.641   c1.422,0.627,2.135,2.211,1.69,3.676l-1.344,4.344c-0.022,0.082-0.056,0.18-0.099,0.264c-0.632,1.568-2.414,2.303-3.972,1.656   L55.42,70.906c-1.169-0.488-1.937-1.668-1.882-2.957l0.653-14.67l-1.86-2.172c0.264-0.566,0.494-1.152,0.708-1.756l2.88,3.331   l-0.691,15.346c-0.021,0.574,0.308,1.102,0.846,1.326l19.908,8.242c0.69,0.285,1.491-0.039,1.782-0.74   c0.016-0.039,0.038-0.076,0.038-0.127l1.344-4.332c0.191-0.658-0.138-1.365-0.752-1.645l-16.063-7.18l1.997-10.979l16.106,7.42   c0.494,0.219,1.092,0.131,1.491-0.242l13.613-12.399c0.559-0.501,0.592-1.361,0.076-1.92c-0.054-0.077-0.131-0.144-0.23-0.204   l-3.032-2.105c-0.5-0.357-1.19-0.317-1.651,0.077l-10.695,9.061L68.55,46.488L56.358,34.176l8.949-3.905l6.62,5.995   c0.444,0.405,1.091,0.46,1.612,0.153l3.164-1.908c0.658-0.396,0.867-1.229,0.484-1.871c-0.117-0.17-0.254-0.317-0.406-0.422   l-10.344-7.152c-0.346-0.246-0.808-0.316-1.229-0.169l-15.894,5.501c-0.076-0.076-0.153-0.164-0.208-0.242   c1.261-3.323-0.384-7.047-3.687-8.324C42.657,20.767,39.526,21.721,37.819,24.134z"></path></g></svg>