<svg xmlns="http://www.w3.org/2000/svg" xmlns:xlink="http://www.w3.org/1999/xlink" xmlns:sketch="http://www.bohemiancoding.com/sketch/ns" viewBox="0 0 30 30" version="1.1" x="0px" y="0px"><title>interface_059-window-arrow-back-application</title><desc>Created with Sketch.</desc><g stroke="none" stroke-width="1" fill="none" fill-rule="evenodd" sketch:type="MSPage"><g sketch:type="MSArtboardGroup" transform="translate(-495.000000, -225.000000)" fill="#000000"><g sketch:type="MSLayerGroup" transform="translate(498.000000, 228.000000)"><path d="M13.6435734,11.3506796 C13.8385967,11.5461803 14.155179,11.5465672 14.3506796,11.3515438 C14.5461803,11.1565205 14.5465672,10.8399382 14.3515438,10.6444376 L12.3564266,8.64443758 C12.1612347,8.44876795 11.8443189,8.44857429 11.648888,8.6440052 L9.64888801,10.6440052 C9.45362587,10.8392674 9.45362587,11.1558498 9.64888801,11.351112 C9.84415016,11.5463741 10.1607327,11.5463741 10.3559948,11.351112 L11.5024414,10.2033528 L11.5024414,15.9975586 C11.5024414,16.273701 11.726299,16.4975586 12.0024414,16.4975586 C12.2785838,16.4975586 12.5024414,16.273701 12.5024414,15.9975586 L12.5024414,10.2067549 L13.6435734,11.3506796 Z" sketch:type="MSShapeGroup" transform="translate(12.000000, 12.497559) scale(-1, -1) rotate(-270.000000) translate(-12.000000, -12.497559) "></path><path d="M0,0.5 L0,22.5 C0,22.7761424 0.2238576,23 0.5,23 L24.5,23 C24.7761424,23 25,22.7761424 25,22.5 L25,0.5 C25,0.2238576 24.7761424,0 24.5,0 L0.5,0 C0.2238576,0 0,0.2238576 0,0.5 Z M1,4 L24,4 L24,22 L1,22 L1,4 Z M2,3 C2.5522847,3 3,2.5522847 3,2 C3,1.4477153 2.5522847,1 2,1 C1.4477153,1 1,1.4477153 1,2 C1,2.5522847 1.4477153,3 2,3 Z M5,3 C5.5522847,3 6,2.5522847 6,2 C6,1.4477153 5.5522847,1 5,1 C4.4477153,1 4,1.4477153 4,2 C4,2.5522847 4.4477153,3 5,3 Z M8,3 C8.5522847,3 9,2.5522847 9,2 C9,1.4477153 8.5522847,1 8,1 C7.4477153,1 7,1.4477153 7,2 C7,2.5522847 7.4477153,3 8,3 Z" sketch:type="MSShapeGroup"></path></g></g></g></svg>