<svg xmlns="http://www.w3.org/2000/svg" xmlns:xlink="http://www.w3.org/1999/xlink" version="1.1" x="0px" y="0px" viewBox="0 0 100 100" enable-background="new 0 0 100 100" xml:space="preserve"><g><path d="M89.7,42.8c-0.1-0.1-0.2-0.2-0.3-0.3c-0.1-0.2-0.3-0.3-0.5-0.4c-0.7-0.6-1.2-1.3-1.7-1.9c-0.5-0.8-0.9-2-1.3-3.3   c-0.8-2.5-1.7-5.2-4.1-6.9c-1.8-1.2-4-1.3-6-1.3l-1.7,0c-1.5,0-2.7-0.1-3.7-0.4c-1-0.4-2.1-1.4-3.2-2.4c-1.7-1.6-3.7-3.3-6.2-3.8   C60.6,22,60.2,22,59.9,22c-1.9,0-3.8,0.8-5.6,1.5c-1.6,0.6-3,1.3-4.3,1.3c-1.3,0-2.7-0.6-4.3-1.3c-1.8-0.7-3.6-1.5-5.6-1.5   c-0.4,0-0.7,0-1.1,0.1c-2.6,0.4-4.5,2.2-6.2,3.8c-1.1,1-2.2,2-3.2,2.4c-1,0.4-2.2,0.4-3.7,0.4l-1.7,0c-1.9,0-4.2,0.1-6,1.3   c-2.5,1.7-3.4,4.5-4.1,6.9c-0.4,1.3-0.8,2.5-1.3,3.3c-0.6,0.9-1.5,1.8-2.5,2.7C8.3,44.8,6,46.9,6,50c0,3.1,2.3,5.2,4.3,7.2   c1,0.9,1.9,1.8,2.5,2.7c0.5,0.8,0.9,2,1.3,3.3c0.8,2.5,1.7,5.2,4.1,6.9c1.8,1.2,4,1.3,6,1.3l1.7,0c1.5,0,2.7,0.1,3.7,0.4   c1,0.4,2.1,1.4,3.2,2.4c1.7,1.6,3.7,3.3,6.2,3.8c0.4,0.1,0.7,0.1,1.1,0.1c1.9,0,3.8-0.8,5.5-1.5c1.6-0.6,3-1.3,4.3-1.3   s2.7,0.6,4.3,1.3c1.8,0.7,3.6,1.5,5.6,1.5c0.4,0,0.7,0,1.1-0.1c2.6-0.4,4.5-2.2,6.2-3.8c1.1-1,2.2-2,3.2-2.4c1-0.4,2.2-0.4,3.7-0.4   l1.7,0c1.9,0,4.2-0.1,6-1.3c2.5-1.7,3.4-4.5,4.1-6.9c0.4-1.3,0.8-2.5,1.3-3.3c0.6-0.9,1.5-1.8,2.5-2.7c2-1.9,4.3-4.1,4.3-7.2   C94,46.9,91.7,44.8,89.7,42.8z M17.9,38.1c0.6-2,1.2-3.9,2.6-4.8c0.8-0.6,2.4-0.6,3.7-0.6l1.7,0c1.7,0,3.4-0.1,5-0.7c0,0,0,0,0.1,0   v3c0,1.1,0.9,2,2,2s2-0.9,2-2v-5.7c0.2-0.1,0.3-0.3,0.5-0.4c1.4-1.3,2.8-2.5,4.2-2.8c1.3-0.2,2.8,0.5,4.5,1.2   c0.3,0.1,0.6,0.2,0.8,0.3V32c0,1.1,0.9,2,2,2s2-0.9,2-2v-3.3c0.3,0,0.7,0.1,1,0.1c2.1,0,4-0.8,5.8-1.6c1.1-0.5,2.2-0.9,3.2-1.1V34   c0,1.1,0.9,2,2,2s2-0.9,2-2v-6.5c0.5,0.4,1,0.9,1.5,1.3c1.4,1.3,2.8,2.5,4.6,3.2c1.3,0.5,2.6,0.6,3.9,0.7V37c0,1.1,0.9,2,2,2   s2-0.9,2-2v-4.3c1,0,1.9,0.2,2.5,0.6c1.3,0.9,1.9,2.8,2.6,4.8c0.2,0.6,0.4,1.3,0.6,1.9c-0.3,0-0.6,0-0.6,0c-3,0-4.3,2.7-5.3,4.7   c-0.5,1-1.2,2.4-1.7,2.4c-0.5,0-1.2-1.4-1.7-2.5c-1-2-2.3-4.7-5.3-4.7c-3,0-4.3,2.7-5.3,4.7c-0.5,1-1.2,2.5-1.7,2.5   c-0.5,0-1.2-1.4-1.7-2.5c-1-2-2.3-4.7-5.3-4.7c-3,0-4.3,2.7-5.3,4.7c-0.5,1-1.2,2.5-1.7,2.5c-0.5,0-1.2-1.4-1.7-2.5   c-1-2-2.3-4.7-5.3-4.7s-4.3,2.7-5.3,4.7c-0.5,1-1.2,2.5-1.7,2.5c-0.5,0-1.2-1.4-1.7-2.5c-1-2-2.3-4.7-5.3-4.7c-3,0-4.3,2.7-5.3,4.7   c-0.5,1-1.2,2.5-1.7,2.5c-0.3,0-0.6-0.4-1.2-1.9c-0.3-0.8-0.8-1.8-1.4-2.6c0-0.1,0.1-0.1,0.1-0.2C17,41.1,17.5,39.6,17.9,38.1z    M82.1,61.9c-0.6,2-1.2,3.9-2.6,4.8c-0.8,0.6-2.4,0.6-3.7,0.6l-1.7,0c-1.3,0-2.8,0.1-4.1,0.4V65c0-1.1-0.9-2-2-2s-2,0.9-2,2v4.9   c-0.5,0.4-1,0.9-1.5,1.3c-1.4,1.3-2.8,2.5-4.2,2.8c-1.2,0.2-2.7-0.4-4.3-1.1V68c0-1.1-0.9-2-2-2s-2,0.9-2,2v3.5   c-0.7-0.1-1.3-0.2-2-0.2c-2.1,0-4,0.8-5.8,1.6c-0.8,0.3-1.5,0.6-2.2,0.8V66c0-1.1-0.9-2-2-2s-2,0.9-2,2v7.2   c-0.8-0.5-1.7-1.3-2.5-2.1c-1.4-1.3-2.8-2.5-4.6-3.2c-1.3-0.5-2.6-0.6-3.9-0.7V63c0-1.1-0.9-2-2-2s-2,0.9-2,2v4.3   c-1,0-1.9-0.2-2.5-0.6c-1.3-0.9-1.9-2.8-2.6-4.8c-0.1-0.4-0.3-0.8-0.4-1.2c4.2-0.8,5.8-3.6,6.9-5.4c0.4-0.7,0.9-1.5,1.1-1.5   c0.5,0,1.2,1.4,1.7,2.4c1,2,2.3,4.7,5.3,4.7s4.3-2.7,5.3-4.7c0.5-1,1.2-2.4,1.7-2.4c0.5,0,1.2,1.4,1.7,2.4c1,2,2.3,4.7,5.3,4.7   s4.3-2.7,5.3-4.7c0.5-1,1.2-2.4,1.7-2.4c0.5,0,1.2,1.4,1.7,2.4c1,2,2.3,4.7,5.3,4.7c3,0,4.3-2.7,5.3-4.7c0.5-1,1.2-2.4,1.7-2.4   c0.5,0,1.2,1.4,1.7,2.4c1,2,2.3,4.7,5.3,4.7c3,0,4.3-2.7,5.3-4.7c0.5-1,1.2-2.4,1.7-2.4c0.7,0,1,0.3,1.9,1.5   c0.3,0.4,0.7,0.9,1.3,1.4c-0.2,0.3-0.5,0.6-0.7,0.9C83,58.9,82.5,60.4,82.1,61.9z M87.4,53.8c-0.2-0.2-0.5-0.6-0.9-1   c-0.9-1.2-2.3-3-5.1-3c-3,0-4.3,2.7-5.3,4.7c-0.5,1-1.2,2.4-1.7,2.4c-0.5,0-1.2-1.4-1.7-2.4c-1-2-2.3-4.7-5.3-4.7   c-3,0-4.3,2.7-5.3,4.7c-0.5,1-1.2,2.4-1.7,2.4c-0.5,0-1.2-1.4-1.7-2.4c-1-2-2.3-4.7-5.3-4.7c-3,0-4.3,2.7-5.3,4.7   c-0.5,1-1.2,2.4-1.7,2.4c-0.5,0-1.2-1.4-1.7-2.4c-1-2-2.3-4.7-5.3-4.7s-4.3,2.7-5.3,4.7c-0.5,1-1.2,2.4-1.7,2.4s-1.2-1.4-1.7-2.4   c-1-2-2.3-4.7-5.3-4.7c-2.5,0-3.7,2-4.6,3.4c-1.1,1.9-2.1,3.5-5.4,3.7c-0.8-0.9-1.6-1.8-2.5-2.6c-1.6-1.5-3-2.9-3-4.3   c0-1.4,1.5-2.8,3-4.3c0,0,0.1-0.1,0.1-0.1c0.1,0.3,0.3,0.7,0.5,1.2c0.7,1.7,1.8,4.3,4.9,4.3c3,0,4.3-2.7,5.3-4.7   c0.5-1,1.2-2.5,1.7-2.5c0.5,0,1.2,1.4,1.7,2.5c1,2,2.3,4.7,5.3,4.7c3,0,4.3-2.7,5.3-4.7c0.5-1,1.2-2.5,1.7-2.5   c0.5,0,1.2,1.4,1.7,2.5c1,2,2.3,4.7,5.3,4.7s4.3-2.7,5.3-4.7c0.5-1,1.2-2.5,1.7-2.5c0.5,0,1.2,1.4,1.7,2.5c1,2,2.3,4.7,5.3,4.7   c3,0,4.3-2.7,5.3-4.7c0.5-1,1.2-2.5,1.7-2.5c0.5,0,1.2,1.4,1.7,2.5c1,2,2.3,4.7,5.3,4.7c3,0,4.3-2.7,5.3-4.7c0.5-1,1.2-2.4,1.7-2.4   c1.3,0,3.2,0.4,4,1c0.3,0.3,0.5,0.5,0.8,0.8c1.6,1.5,3,2.9,3,4.3C90,51.2,88.8,52.5,87.4,53.8z"></path></g></svg>