<svg xmlns="http://www.w3.org/2000/svg" xmlns:xlink="http://www.w3.org/1999/xlink" version="1.1" x="0px" y="0px" viewBox="0 0 100 100" enable-background="new 0 0 100 100" xml:space="preserve"><g><g><path fill="#FFFFFF" d="M50.5,11.5l-43,41h10v30c0,3.3,2.8,6,6,6h54c3.2,0,6-2.7,6-6v-30h10L50.5,11.5z M80.5,49.5v33c0,1.6-1.5,3-3,3h-54    c-1.5,0-3-1.4-3-3v-33h-5l35-33.9l35,33.9H80.5z M63,49.5h-7c-1.9,0-3.5,1.6-3.5,3.5v7c0,1.9,1.6,3.5,3.5,3.5h7    c1.9,0,3.5-1.6,3.5-3.5v-7C66.5,51.1,64.9,49.5,63,49.5z M63.5,60c0,0.3-0.2,0.5-0.5,0.5h-7c-0.3,0-0.5-0.2-0.5-0.5v-7    c0-0.3,0.2-0.5,0.5-0.5h7c0.3,0,0.5,0.2,0.5,0.5V60z M46,49.5h-7c-1.9,0-3.5,1.6-3.5,3.5v7c0,1.9,1.6,3.5,3.5,3.5h7    c1.9,0,3.5-1.6,3.5-3.5v-7C49.5,51.1,47.9,49.5,46,49.5z M46.5,60c0,0.3-0.2,0.5-0.5,0.5h-7c-0.3,0-0.5-0.2-0.5-0.5v-7    c0-0.3,0.2-0.5,0.5-0.5h7c0.3,0,0.5,0.2,0.5,0.5V60z M63,66.5h-7c-1.9,0-3.5,1.6-3.5,3.5v7c0,1.9,1.6,3.5,3.5,3.5h7    c1.9,0,3.5-1.6,3.5-3.5v-7C66.5,68.1,64.9,66.5,63,66.5z M63.5,77c0,0.3-0.2,0.5-0.5,0.5h-7c-0.3,0-0.5-0.2-0.5-0.5v-7    c0-0.3,0.2-0.5,0.5-0.5h7c0.3,0,0.5,0.2,0.5,0.5V77z M46,66.5h-7c-1.9,0-3.5,1.6-3.5,3.5v7c0,1.9,1.6,3.5,3.5,3.5h7    c1.9,0,3.5-1.6,3.5-3.5v-7C49.5,68.1,47.9,66.5,46,66.5z M46.5,77c0,0.3-0.2,0.5-0.5,0.5h-7c-0.3,0-0.5-0.2-0.5-0.5v-7    c0-0.3,0.2-0.5,0.5-0.5h7c0.3,0,0.5,0.2,0.5,0.5V77z"/></g></g></svg>